<mxfile host="app.diagrams.net" modified="2023-10-27T05:53:38.435Z" agent="Mozilla/5.0 (Windows NT 10.0; Win64; x64) AppleWebKit/537.36 (KHTML, like Gecko) Chrome/118.0.0.0 Safari/537.36" etag="_ybwNiuOnuk8x8OL20CA" version="22.0.8" type="device">
  <diagram name="ページ1" id="ym1B2cnTGsr9DvGCXZNy">
    <mxGraphModel dx="1500" dy="830" grid="1" gridSize="10" guides="1" tooltips="1" connect="1" arrows="1" fold="1" page="1" pageScale="1" pageWidth="827" pageHeight="1169" math="0" shadow="0">
      <root>
        <mxCell id="0" />
        <mxCell id="1" parent="0" />
        <mxCell id="Q8t5h6N0toaCzatpVtuT-84" value="" style="rounded=0;whiteSpace=wrap;html=1;fillColor=#dae8fc;strokeColor=#6c8ebf;" vertex="1" parent="1">
          <mxGeometry x="980" y="180" width="40" height="560" as="geometry" />
        </mxCell>
        <mxCell id="Q8t5h6N0toaCzatpVtuT-85" value="websocket通信開始" style="text;html=1;strokeColor=none;fillColor=none;align=center;verticalAlign=middle;whiteSpace=wrap;rounded=0;fontColor=#808080;" vertex="1" parent="1">
          <mxGeometry x="970" y="210" width="60" height="30" as="geometry" />
        </mxCell>
        <mxCell id="Q8t5h6N0toaCzatpVtuT-82" value="" style="rounded=0;whiteSpace=wrap;html=1;fillColor=#dae8fc;strokeColor=#6c8ebf;" vertex="1" parent="1">
          <mxGeometry x="800" y="180" width="40" height="560" as="geometry" />
        </mxCell>
        <mxCell id="Q8t5h6N0toaCzatpVtuT-80" value="" style="rounded=0;whiteSpace=wrap;html=1;fillColor=#dae8fc;strokeColor=#6c8ebf;" vertex="1" parent="1">
          <mxGeometry x="590" y="180" width="40" height="560" as="geometry" />
        </mxCell>
        <mxCell id="Q8t5h6N0toaCzatpVtuT-1" value="webブラウザ" style="rounded=0;whiteSpace=wrap;html=1;" vertex="1" parent="1">
          <mxGeometry x="320" y="40" width="120" height="50" as="geometry" />
        </mxCell>
        <mxCell id="Q8t5h6N0toaCzatpVtuT-2" value="server.js" style="rounded=0;whiteSpace=wrap;html=1;" vertex="1" parent="1">
          <mxGeometry x="550" y="40" width="120" height="50" as="geometry" />
        </mxCell>
        <mxCell id="Q8t5h6N0toaCzatpVtuT-4" value="ユーザー" style="rounded=0;whiteSpace=wrap;html=1;" vertex="1" parent="1">
          <mxGeometry x="100" y="40" width="120" height="50" as="geometry" />
        </mxCell>
        <mxCell id="Q8t5h6N0toaCzatpVtuT-5" value="" style="endArrow=none;dashed=1;html=1;rounded=0;entryX=0.5;entryY=1;entryDx=0;entryDy=0;" edge="1" parent="1" target="Q8t5h6N0toaCzatpVtuT-4">
          <mxGeometry width="50" height="50" relative="1" as="geometry">
            <mxPoint x="160" y="490" as="sourcePoint" />
            <mxPoint x="440" y="280" as="targetPoint" />
          </mxGeometry>
        </mxCell>
        <mxCell id="Q8t5h6N0toaCzatpVtuT-7" value="" style="endArrow=classic;html=1;rounded=0;entryX=-0.09;entryY=0.158;entryDx=0;entryDy=0;entryPerimeter=0;" edge="1" parent="1" target="Q8t5h6N0toaCzatpVtuT-23">
          <mxGeometry width="50" height="50" relative="1" as="geometry">
            <mxPoint x="160" y="130" as="sourcePoint" />
            <mxPoint x="360" y="130" as="targetPoint" />
          </mxGeometry>
        </mxCell>
        <mxCell id="Q8t5h6N0toaCzatpVtuT-8" value="" style="endArrow=none;dashed=1;html=1;rounded=0;entryX=0.5;entryY=1;entryDx=0;entryDy=0;" edge="1" parent="1" source="Q8t5h6N0toaCzatpVtuT-13">
          <mxGeometry width="50" height="50" relative="1" as="geometry">
            <mxPoint x="379.5" y="490" as="sourcePoint" />
            <mxPoint x="379.5" y="90" as="targetPoint" />
          </mxGeometry>
        </mxCell>
        <mxCell id="Q8t5h6N0toaCzatpVtuT-9" value="" style="endArrow=none;dashed=1;html=1;rounded=0;entryX=0.5;entryY=1;entryDx=0;entryDy=0;" edge="1" parent="1" source="Q8t5h6N0toaCzatpVtuT-17">
          <mxGeometry width="50" height="50" relative="1" as="geometry">
            <mxPoint x="609.5" y="490" as="sourcePoint" />
            <mxPoint x="609.5" y="90" as="targetPoint" />
          </mxGeometry>
        </mxCell>
        <mxCell id="Q8t5h6N0toaCzatpVtuT-12" value="初回アクセス" style="text;html=1;strokeColor=none;fillColor=none;align=center;verticalAlign=middle;whiteSpace=wrap;rounded=0;fontSize=9;" vertex="1" parent="1">
          <mxGeometry x="230" y="100" width="80" height="30" as="geometry" />
        </mxCell>
        <mxCell id="Q8t5h6N0toaCzatpVtuT-14" value="" style="endArrow=none;dashed=1;html=1;rounded=0;entryX=0.5;entryY=1;entryDx=0;entryDy=0;" edge="1" parent="1" target="Q8t5h6N0toaCzatpVtuT-13">
          <mxGeometry width="50" height="50" relative="1" as="geometry">
            <mxPoint x="379.5" y="490" as="sourcePoint" />
            <mxPoint x="379.5" y="90" as="targetPoint" />
          </mxGeometry>
        </mxCell>
        <mxCell id="Q8t5h6N0toaCzatpVtuT-13" value="" style="rounded=0;whiteSpace=wrap;html=1;fillColor=#dae8fc;strokeColor=#6c8ebf;" vertex="1" parent="1">
          <mxGeometry x="360" y="180" width="40" height="560" as="geometry" />
        </mxCell>
        <mxCell id="Q8t5h6N0toaCzatpVtuT-15" value="" style="endArrow=classic;html=1;rounded=0;" edge="1" parent="1">
          <mxGeometry width="50" height="50" relative="1" as="geometry">
            <mxPoint x="400" y="140" as="sourcePoint" />
            <mxPoint x="590" y="139.5" as="targetPoint" />
          </mxGeometry>
        </mxCell>
        <mxCell id="Q8t5h6N0toaCzatpVtuT-16" value="websocket接続要求" style="text;html=1;strokeColor=none;fillColor=none;align=center;verticalAlign=middle;whiteSpace=wrap;rounded=0;fontSize=9;" vertex="1" parent="1">
          <mxGeometry x="455" y="120" width="90" height="20" as="geometry" />
        </mxCell>
        <mxCell id="Q8t5h6N0toaCzatpVtuT-18" value="" style="endArrow=none;dashed=1;html=1;rounded=0;entryX=0.5;entryY=1;entryDx=0;entryDy=0;" edge="1" parent="1" target="Q8t5h6N0toaCzatpVtuT-17">
          <mxGeometry width="50" height="50" relative="1" as="geometry">
            <mxPoint x="609.5" y="490" as="sourcePoint" />
            <mxPoint x="609.5" y="90" as="targetPoint" />
          </mxGeometry>
        </mxCell>
        <mxCell id="Q8t5h6N0toaCzatpVtuT-19" value="" style="endArrow=classic;html=1;rounded=0;exitX=-0.067;exitY=0.66;exitDx=0;exitDy=0;exitPerimeter=0;" edge="1" parent="1" source="Q8t5h6N0toaCzatpVtuT-23">
          <mxGeometry width="50" height="50" relative="1" as="geometry">
            <mxPoint x="360" y="159.5" as="sourcePoint" />
            <mxPoint x="160" y="159.5" as="targetPoint" />
          </mxGeometry>
        </mxCell>
        <mxCell id="Q8t5h6N0toaCzatpVtuT-20" value="ページ表示" style="text;html=1;strokeColor=none;fillColor=none;align=center;verticalAlign=middle;whiteSpace=wrap;rounded=0;fontSize=9;" vertex="1" parent="1">
          <mxGeometry x="230" y="135" width="80" height="30" as="geometry" />
        </mxCell>
        <mxCell id="Q8t5h6N0toaCzatpVtuT-22" value="接続完了（待機状態）" style="text;html=1;strokeColor=none;fillColor=none;align=center;verticalAlign=middle;whiteSpace=wrap;rounded=0;fontSize=9;" vertex="1" parent="1">
          <mxGeometry x="412.5" y="170" width="180" height="20" as="geometry" />
        </mxCell>
        <mxCell id="Q8t5h6N0toaCzatpVtuT-23" value="" style="rounded=0;whiteSpace=wrap;html=1;" vertex="1" parent="1">
          <mxGeometry x="370" y="120" width="20" height="60" as="geometry" />
        </mxCell>
        <mxCell id="Q8t5h6N0toaCzatpVtuT-24" value="websocket通信開始" style="text;html=1;strokeColor=none;fillColor=none;align=center;verticalAlign=middle;whiteSpace=wrap;rounded=0;fontColor=#808080;" vertex="1" parent="1">
          <mxGeometry x="350" y="210" width="60" height="30" as="geometry" />
        </mxCell>
        <mxCell id="Q8t5h6N0toaCzatpVtuT-17" value="" style="rounded=0;whiteSpace=wrap;html=1;" vertex="1" parent="1">
          <mxGeometry x="600" y="130" width="20" height="80" as="geometry" />
        </mxCell>
        <mxCell id="Q8t5h6N0toaCzatpVtuT-21" value="" style="endArrow=classic;html=1;rounded=0;exitX=0;exitY=0.75;exitDx=0;exitDy=0;" edge="1" parent="1" source="Q8t5h6N0toaCzatpVtuT-17">
          <mxGeometry width="50" height="50" relative="1" as="geometry">
            <mxPoint x="591" y="190" as="sourcePoint" />
            <mxPoint x="400" y="190" as="targetPoint" />
          </mxGeometry>
        </mxCell>
        <mxCell id="Q8t5h6N0toaCzatpVtuT-26" value="" style="endArrow=classic;html=1;rounded=0;entryX=-0.09;entryY=0.158;entryDx=0;entryDy=0;entryPerimeter=0;" edge="1" parent="1">
          <mxGeometry width="50" height="50" relative="1" as="geometry">
            <mxPoint x="162" y="271" as="sourcePoint" />
            <mxPoint x="370" y="270" as="targetPoint" />
          </mxGeometry>
        </mxCell>
        <mxCell id="Q8t5h6N0toaCzatpVtuT-27" value="ルーム作成" style="text;html=1;strokeColor=none;fillColor=none;align=center;verticalAlign=middle;whiteSpace=wrap;rounded=0;fontSize=9;" vertex="1" parent="1">
          <mxGeometry x="230" y="250" width="80" height="20" as="geometry" />
        </mxCell>
        <mxCell id="Q8t5h6N0toaCzatpVtuT-28" value="" style="rounded=0;whiteSpace=wrap;html=1;" vertex="1" parent="1">
          <mxGeometry x="370" y="250" width="20" height="90" as="geometry" />
        </mxCell>
        <mxCell id="Q8t5h6N0toaCzatpVtuT-29" value="" style="endArrow=classic;html=1;rounded=0;entryX=-0.09;entryY=0.158;entryDx=0;entryDy=0;entryPerimeter=0;" edge="1" parent="1">
          <mxGeometry width="50" height="50" relative="1" as="geometry">
            <mxPoint x="390" y="280.5" as="sourcePoint" />
            <mxPoint x="598" y="279.5" as="targetPoint" />
          </mxGeometry>
        </mxCell>
        <mxCell id="Q8t5h6N0toaCzatpVtuT-30" value="ルーム作成イベント（roomID,userName）" style="text;html=1;strokeColor=none;fillColor=none;align=center;verticalAlign=middle;whiteSpace=wrap;rounded=0;fontSize=9;" vertex="1" parent="1">
          <mxGeometry x="400" y="260" width="206" height="20" as="geometry" />
        </mxCell>
        <mxCell id="Q8t5h6N0toaCzatpVtuT-31" value="データストア&lt;br&gt;(server.js)" style="rounded=0;whiteSpace=wrap;html=1;" vertex="1" parent="1">
          <mxGeometry x="760" y="40" width="120" height="50" as="geometry" />
        </mxCell>
        <mxCell id="Q8t5h6N0toaCzatpVtuT-32" value="" style="endArrow=none;dashed=1;html=1;rounded=0;entryX=0.5;entryY=1;entryDx=0;entryDy=0;" edge="1" parent="1">
          <mxGeometry width="50" height="50" relative="1" as="geometry">
            <mxPoint x="819.7141573033707" y="270" as="sourcePoint" />
            <mxPoint x="819.52" y="90" as="targetPoint" />
          </mxGeometry>
        </mxCell>
        <mxCell id="Q8t5h6N0toaCzatpVtuT-33" value="" style="rounded=0;whiteSpace=wrap;html=1;" vertex="1" parent="1">
          <mxGeometry x="600" y="260" width="20" height="130" as="geometry" />
        </mxCell>
        <mxCell id="Q8t5h6N0toaCzatpVtuT-34" value="" style="endArrow=classic;html=1;rounded=0;entryX=1.068;entryY=0.667;entryDx=0;entryDy=0;entryPerimeter=0;" edge="1" parent="1">
          <mxGeometry width="50" height="50" relative="1" as="geometry">
            <mxPoint x="600" y="320" as="sourcePoint" />
            <mxPoint x="391.36" y="320.03" as="targetPoint" />
          </mxGeometry>
        </mxCell>
        <mxCell id="Q8t5h6N0toaCzatpVtuT-36" value="ルーム作成通知" style="text;html=1;strokeColor=none;fillColor=none;align=center;verticalAlign=middle;whiteSpace=wrap;rounded=0;fontSize=9;" vertex="1" parent="1">
          <mxGeometry x="394" y="300" width="206" height="20" as="geometry" />
        </mxCell>
        <mxCell id="Q8t5h6N0toaCzatpVtuT-37" value="" style="endArrow=classic;html=1;rounded=0;entryX=1.068;entryY=0.667;entryDx=0;entryDy=0;entryPerimeter=0;" edge="1" parent="1">
          <mxGeometry width="50" height="50" relative="1" as="geometry">
            <mxPoint x="370" y="330" as="sourcePoint" />
            <mxPoint x="161" y="330" as="targetPoint" />
          </mxGeometry>
        </mxCell>
        <mxCell id="Q8t5h6N0toaCzatpVtuT-38" value="メイン画面表示" style="text;html=1;strokeColor=none;fillColor=none;align=center;verticalAlign=middle;whiteSpace=wrap;rounded=0;fontSize=9;" vertex="1" parent="1">
          <mxGeometry x="230" y="310" width="80" height="20" as="geometry" />
        </mxCell>
        <mxCell id="Q8t5h6N0toaCzatpVtuT-39" value="" style="endArrow=classic;html=1;rounded=0;entryX=-0.09;entryY=0.158;entryDx=0;entryDy=0;entryPerimeter=0;" edge="1" parent="1">
          <mxGeometry width="50" height="50" relative="1" as="geometry">
            <mxPoint x="162" y="411" as="sourcePoint" />
            <mxPoint x="370" y="410" as="targetPoint" />
          </mxGeometry>
        </mxCell>
        <mxCell id="Q8t5h6N0toaCzatpVtuT-40" value="" style="endArrow=classic;html=1;rounded=0;entryX=-0.04;entryY=0.038;entryDx=0;entryDy=0;entryPerimeter=0;" edge="1" parent="1">
          <mxGeometry width="50" height="50" relative="1" as="geometry">
            <mxPoint x="620" y="291" as="sourcePoint" />
            <mxPoint x="809.2" y="290.14" as="targetPoint" />
          </mxGeometry>
        </mxCell>
        <mxCell id="Q8t5h6N0toaCzatpVtuT-41" value="ルーム情報とユーザ情報をセット" style="text;html=1;strokeColor=none;fillColor=none;align=center;verticalAlign=middle;whiteSpace=wrap;rounded=0;fontSize=9;" vertex="1" parent="1">
          <mxGeometry x="620" y="270" width="206" height="20" as="geometry" />
        </mxCell>
        <mxCell id="Q8t5h6N0toaCzatpVtuT-43" value="" style="endArrow=none;dashed=1;html=1;rounded=0;entryX=0.5;entryY=1;entryDx=0;entryDy=0;" edge="1" parent="1">
          <mxGeometry width="50" height="50" relative="1" as="geometry">
            <mxPoint x="819.52" y="490" as="sourcePoint" />
            <mxPoint x="820" y="800" as="targetPoint" />
          </mxGeometry>
        </mxCell>
        <mxCell id="Q8t5h6N0toaCzatpVtuT-52" value="/room/roomIdで入室" style="text;html=1;strokeColor=none;fillColor=none;align=center;verticalAlign=middle;whiteSpace=wrap;rounded=0;fontSize=9;" vertex="1" parent="1">
          <mxGeometry x="210" y="390" width="120" height="20" as="geometry" />
        </mxCell>
        <mxCell id="Q8t5h6N0toaCzatpVtuT-53" value="" style="rounded=0;whiteSpace=wrap;html=1;" vertex="1" parent="1">
          <mxGeometry x="370" y="390" width="20" height="210" as="geometry" />
        </mxCell>
        <mxCell id="Q8t5h6N0toaCzatpVtuT-55" value="" style="endArrow=classic;html=1;rounded=0;" edge="1" parent="1">
          <mxGeometry width="50" height="50" relative="1" as="geometry">
            <mxPoint x="370" y="450.16" as="sourcePoint" />
            <mxPoint x="190" y="450" as="targetPoint" />
          </mxGeometry>
        </mxCell>
        <mxCell id="Q8t5h6N0toaCzatpVtuT-57" value="" style="endArrow=none;dashed=1;html=1;rounded=0;" edge="1" parent="1">
          <mxGeometry width="50" height="50" relative="1" as="geometry">
            <mxPoint x="190" y="410" as="sourcePoint" />
            <mxPoint x="190" y="540" as="targetPoint" />
          </mxGeometry>
        </mxCell>
        <mxCell id="Q8t5h6N0toaCzatpVtuT-58" value="名前入力画面表示" style="text;html=1;strokeColor=none;fillColor=none;align=center;verticalAlign=middle;whiteSpace=wrap;rounded=0;fontSize=9;" vertex="1" parent="1">
          <mxGeometry x="210" y="430" width="120" height="20" as="geometry" />
        </mxCell>
        <mxCell id="Q8t5h6N0toaCzatpVtuT-60" value="" style="endArrow=classic;html=1;rounded=0;" edge="1" parent="1">
          <mxGeometry width="50" height="50" relative="1" as="geometry">
            <mxPoint x="192" y="491" as="sourcePoint" />
            <mxPoint x="370" y="491" as="targetPoint" />
          </mxGeometry>
        </mxCell>
        <mxCell id="Q8t5h6N0toaCzatpVtuT-61" value="名前入力して送信" style="text;html=1;strokeColor=none;fillColor=none;align=center;verticalAlign=middle;whiteSpace=wrap;rounded=0;fontSize=9;" vertex="1" parent="1">
          <mxGeometry x="210" y="470" width="120" height="20" as="geometry" />
        </mxCell>
        <mxCell id="Q8t5h6N0toaCzatpVtuT-62" value="" style="endArrow=classic;html=1;rounded=0;entryX=1;entryY=1;entryDx=0;entryDy=0;" edge="1" parent="1" target="Q8t5h6N0toaCzatpVtuT-63">
          <mxGeometry width="50" height="50" relative="1" as="geometry">
            <mxPoint x="390" y="520" as="sourcePoint" />
            <mxPoint x="568" y="520" as="targetPoint" />
          </mxGeometry>
        </mxCell>
        <mxCell id="Q8t5h6N0toaCzatpVtuT-63" value="ルーム入室処理（URLからroomID,userName）" style="text;html=1;strokeColor=none;fillColor=none;align=center;verticalAlign=middle;whiteSpace=wrap;rounded=0;fontSize=9;" vertex="1" parent="1">
          <mxGeometry x="397" y="500" width="206" height="20" as="geometry" />
        </mxCell>
        <mxCell id="Q8t5h6N0toaCzatpVtuT-64" value="" style="rounded=0;whiteSpace=wrap;html=1;" vertex="1" parent="1">
          <mxGeometry x="603" y="510" width="20" height="170" as="geometry" />
        </mxCell>
        <mxCell id="Q8t5h6N0toaCzatpVtuT-65" value="ルーム入室通知" style="text;html=1;strokeColor=none;fillColor=none;align=center;verticalAlign=middle;whiteSpace=wrap;rounded=0;fontSize=9;" vertex="1" parent="1">
          <mxGeometry x="374" y="670" width="206" height="20" as="geometry" />
        </mxCell>
        <mxCell id="Q8t5h6N0toaCzatpVtuT-66" value="" style="endArrow=classic;html=1;rounded=0;entryX=1.068;entryY=0.667;entryDx=0;entryDy=0;entryPerimeter=0;exitX=0;exitY=0.547;exitDx=0;exitDy=0;exitPerimeter=0;" edge="1" parent="1">
          <mxGeometry width="50" height="50" relative="1" as="geometry">
            <mxPoint x="810" y="559.9100000000001" as="sourcePoint" />
            <mxPoint x="621" y="560" as="targetPoint" />
          </mxGeometry>
        </mxCell>
        <mxCell id="Q8t5h6N0toaCzatpVtuT-67" value="" style="endArrow=classic;html=1;rounded=0;entryX=-0.04;entryY=0.038;entryDx=0;entryDy=0;entryPerimeter=0;" edge="1" parent="1">
          <mxGeometry width="50" height="50" relative="1" as="geometry">
            <mxPoint x="623" y="535.5" as="sourcePoint" />
            <mxPoint x="812" y="534.5" as="targetPoint" />
          </mxGeometry>
        </mxCell>
        <mxCell id="Q8t5h6N0toaCzatpVtuT-68" value="roomIdを探す" style="text;html=1;strokeColor=none;fillColor=none;align=center;verticalAlign=middle;whiteSpace=wrap;rounded=0;fontSize=9;" vertex="1" parent="1">
          <mxGeometry x="620" y="520" width="206" height="10" as="geometry" />
        </mxCell>
        <mxCell id="Q8t5h6N0toaCzatpVtuT-70" value="作成した本人のuserNameを返す" style="text;html=1;strokeColor=none;fillColor=none;align=center;verticalAlign=middle;whiteSpace=wrap;rounded=0;fontSize=9;" vertex="1" parent="1">
          <mxGeometry x="620" y="210" width="206" height="30" as="geometry" />
        </mxCell>
        <mxCell id="Q8t5h6N0toaCzatpVtuT-73" value="roomIdを返す" style="text;html=1;strokeColor=none;fillColor=none;align=center;verticalAlign=middle;whiteSpace=wrap;rounded=0;fontSize=9;" vertex="1" parent="1">
          <mxGeometry x="620" y="540" width="206" height="20" as="geometry" />
        </mxCell>
        <mxCell id="Q8t5h6N0toaCzatpVtuT-77" value="socket.io" style="rounded=0;whiteSpace=wrap;html=1;" vertex="1" parent="1">
          <mxGeometry x="940" y="40" width="120" height="50" as="geometry" />
        </mxCell>
        <mxCell id="Q8t5h6N0toaCzatpVtuT-78" value="" style="endArrow=none;dashed=1;html=1;rounded=0;entryX=0.5;entryY=1;entryDx=0;entryDy=0;" edge="1" parent="1">
          <mxGeometry width="50" height="50" relative="1" as="geometry">
            <mxPoint x="1000" y="760" as="sourcePoint" />
            <mxPoint x="999.5799999999999" y="90" as="targetPoint" />
          </mxGeometry>
        </mxCell>
        <mxCell id="Q8t5h6N0toaCzatpVtuT-81" value="websocket通信開始" style="text;html=1;strokeColor=none;fillColor=none;align=center;verticalAlign=middle;whiteSpace=wrap;rounded=0;fontColor=#808080;" vertex="1" parent="1">
          <mxGeometry x="580" y="210" width="60" height="30" as="geometry" />
        </mxCell>
        <mxCell id="Q8t5h6N0toaCzatpVtuT-83" value="websocket通信開始" style="text;html=1;strokeColor=none;fillColor=none;align=center;verticalAlign=middle;whiteSpace=wrap;rounded=0;fontColor=#808080;" vertex="1" parent="1">
          <mxGeometry x="790" y="210" width="60" height="30" as="geometry" />
        </mxCell>
        <mxCell id="Q8t5h6N0toaCzatpVtuT-87" value="" style="endArrow=classic;html=1;rounded=0;entryX=0;entryY=0.5;entryDx=0;entryDy=0;" edge="1" parent="1" target="Q8t5h6N0toaCzatpVtuT-89">
          <mxGeometry width="50" height="50" relative="1" as="geometry">
            <mxPoint x="621" y="331" as="sourcePoint" />
            <mxPoint x="810" y="330" as="targetPoint" />
          </mxGeometry>
        </mxCell>
        <mxCell id="Q8t5h6N0toaCzatpVtuT-88" value="ルーム作成(roomId)" style="text;html=1;strokeColor=none;fillColor=none;align=center;verticalAlign=middle;whiteSpace=wrap;rounded=0;fontSize=9;" vertex="1" parent="1">
          <mxGeometry x="624" y="310" width="206" height="20" as="geometry" />
        </mxCell>
        <mxCell id="Q8t5h6N0toaCzatpVtuT-89" value="" style="rounded=0;whiteSpace=wrap;html=1;" vertex="1" parent="1">
          <mxGeometry x="990" y="300" width="20" height="60" as="geometry" />
        </mxCell>
        <mxCell id="Q8t5h6N0toaCzatpVtuT-90" value="" style="rounded=0;whiteSpace=wrap;html=1;" vertex="1" parent="1">
          <mxGeometry x="810" y="270" width="20" height="120" as="geometry" />
        </mxCell>
        <mxCell id="Q8t5h6N0toaCzatpVtuT-91" value="" style="endArrow=classic;html=1;rounded=0;exitX=-0.083;exitY=0.839;exitDx=0;exitDy=0;exitPerimeter=0;entryX=0.95;entryY=0.851;entryDx=0;entryDy=0;entryPerimeter=0;" edge="1" parent="1" source="Q8t5h6N0toaCzatpVtuT-90" target="Q8t5h6N0toaCzatpVtuT-33">
          <mxGeometry width="50" height="50" relative="1" as="geometry">
            <mxPoint x="710" y="310" as="sourcePoint" />
            <mxPoint x="760" y="260" as="targetPoint" />
          </mxGeometry>
        </mxCell>
        <mxCell id="Q8t5h6N0toaCzatpVtuT-92" value="userNameを返す" style="text;html=1;strokeColor=none;fillColor=none;align=center;verticalAlign=middle;whiteSpace=wrap;rounded=0;fontSize=9;" vertex="1" parent="1">
          <mxGeometry x="620" y="350" width="206" height="20" as="geometry" />
        </mxCell>
      </root>
    </mxGraphModel>
  </diagram>
</mxfile>
